<svg xmlns="http://www.w3.org/2000/svg"  viewBox="0 0 126 126" width="64px" height="64px"><circle cx="63" cy="63" r="60" fill="#fff"/><path fill="#71c2ff" d="M63,104c-0.38,0-0.75-0.07-1.11-0.21l-35-14C25.75,89.33,25,88.23,25,87V37c0-1.23,0.75-2.33,1.89-2.79 l35-14c0.71-0.29,1.51-0.29,2.23,0l35,14c1.14,0.46,1.89,1.56,1.89,2.79s-0.75,2.33-1.89,2.79L66,53.03V101 c0,1-0.49,1.93-1.32,2.48C64.18,103.83,63.59,104,63,104z M31,84.97l29,11.6V51c0-1.23,0.75-2.33,1.89-2.79L89.92,37L63,26.23 l-32,12.8V84.97z"/><path fill="#71c2ff" d="M98,90c-0.32,0-0.64-0.05-0.96-0.16l-21-7.05c-1.57-0.53-2.42-2.23-1.89-3.8s2.23-2.42,3.8-1.89L95,82.83 v-30.9c0-1.66,1.34-3,3-3s3,1.34,3,3V87c0,0.97-0.46,1.87-1.25,2.44C99.23,89.81,98.62,90,98,90z"/><path fill="#444b54" d="M63,126C28.26,126,0,97.74,0,63S28.26,0,63,0s63,28.26,63,63S97.74,126,63,126z M63,6C31.57,6,6,31.57,6,63 s25.57,57,57,57s57-25.57,57-57S94.43,6,63,6z"/></svg>